<?xml version="1.0" encoding="UTF-8"?>
<svg width="24px" height="24px" viewBox="0 0 24 24" version="1.1" xmlns="http://www.w3.org/2000/svg" xmlns:xlink="http://www.w3.org/1999/xlink">
    <title>9591CFAC-3789-4C26-A5B1-0244DC3EB5C6</title>
    <defs>
        <linearGradient x1="0%" y1="21.875%" x2="100%" y2="78.125%" id="linearGradient-1">
            <stop stop-color="#00AAF4" offset="0%"></stop>
            <stop stop-color="#022F87" offset="100%"></stop>
        </linearGradient>
        <path d="M1.54798762,16.4531653 L22.4520124,16.4531653 L22.4520124,6.03368662 L1.54798762,6.03368662 L1.54798762,16.4531653 Z M1.54798762,4.4868519 L22.4520124,4.4868519 L22.4520124,1.54580349 L1.54798762,1.54580349 L1.54798762,4.4868519 Z M23.2260062,0 L0.773993808,0 C0.346749226,0 0,0.346490977 0,0.773417359 L0,17.2265826 C0,17.653509 0.346749226,18 0.773993808,18 L23.2260062,18 C23.6532508,18 24,17.653509 24,17.2265826 L24,0.773417359 C24,0.346490977 23.6532508,0 23.2260062,0 L23.2260062,0 Z M13.4964912,8.97473503 L5.26429309,8.97473503 C4.8370485,8.97473503 4.49029928,9.32122601 4.49029928,9.74815239 C4.49029928,10.1750788 4.8370485,10.5215698 5.26429309,10.5215698 L13.4964912,10.5215698 C13.9237358,10.5215698 14.270485,10.1750788 14.270485,9.74815239 C14.270485,9.32122601 13.9237358,8.97473503 13.4964912,8.97473503 M10.5027864,11.9656946 L5.26439628,11.9656946 C4.8371517,11.9656946 4.49040248,12.3121856 4.49040248,12.739112 C4.49040248,13.1660384 4.8371517,13.5125294 5.26439628,13.5125294 L10.5027864,13.5125294 C10.930031,13.5125294 11.2767802,13.1660384 11.2767802,12.739112 C11.2767802,12.3121856 10.930031,11.9656946 10.5027864,11.9656946" id="path-2"></path>
        <linearGradient x1="24.9378338%" y1="16.8467829%" x2="79.373299%" y2="82.0326194%" id="linearGradient-4">
            <stop stop-color="#00AAF4" offset="0%"></stop>
            <stop stop-color="#022F87" offset="100%"></stop>
        </linearGradient>
    </defs>
    <g id="Page-1" stroke="none" stroke-width="1" fill="none" fill-rule="evenodd">
        <g id="Billing-folder" transform="translate(-337.000000, -333.000000)">
            <g id="payment-method" transform="translate(337.000000, 333.000000)">
                <g id="Colors/Night-Grey---#202020" transform="translate(0.000000, 3.000000)">
                    <mask id="mask-3" fill="white">
                        <use xlink:href="#path-2"></use>
                    </mask>
                    <use id="Mask" fill="url(#linearGradient-1)" xlink:href="#path-2"></use>
                    <g mask="url(#mask-3)" fill="url(#linearGradient-4)" id="Rectangle-4-Copy">
                        <g transform="translate(0.000000, -3.000000)">
                            <rect x="0" y="0" width="25" height="26"></rect>
                        </g>
                    </g>
                </g>
            </g>
        </g>
    </g>
</svg>